<?xml version="1.0" encoding="utf-8"?>
<!-- Generator: Adobe Illustrator 22.1.0, SVG Export Plug-In . SVG Version: 6.00 Build 0)  -->
<svg version="1.1" id="Layer_1" xmlns="http://www.w3.org/2000/svg" xmlns:xlink="http://www.w3.org/1999/xlink" x="0px" y="0px"
	 viewBox="0 0 352 449" style="enable-background:new 0 0 352 449;" xml:space="preserve">
<style type="text/css">
	.st0{filter:url(#filter-1);}
</style>
<filter  filterUnits="objectBoundingBox" height="200%" id="filter-1" width="200%" x="-50%" y="-50%">
	<feOffset  dx="0" dy="2" in="SourceAlpha" result="shadowOffsetOuter1"></feOffset>
	<feGaussianBlur  in="shadowOffsetOuter1" result="shadowBlurOuter1" stdDeviation="2"></feGaussianBlur>
	
		<feColorMatrix  in="shadowBlurOuter1" result="shadowMatrixOuter1" type="matrix" values="0 0 0 0 0   0 0 0 0 0   0 0 0 0 0  0 0 0 0.05 0">
		</feColorMatrix>
	<feMerge>
		<feMergeNode  in="shadowMatrixOuter1"></feMergeNode>
		<feMergeNode  in="SourceGraphic"></feMergeNode>
	</feMerge>
</filter>
<title>ic_home</title>
<desc>Created with Sketch.</desc>
<g id="OPt-2">
	<g id="prog2_pro3_Mobile-Portrait_opt2-Copy-2" transform="translate(-10.000000, -15.000000)">
		<g id="nav">
			<g id="Group-6" class="st0">
				<g id="ic_home_1_" transform="translate(14.000000, 17.000000)">
					<g id="Group_1_" transform="translate(9.600000, 12.000000) scale(-1, 1) translate(-9.600000, -12.000000) ">
						<path id="Shape_3_" d="M-303.5,126.3l16.7,12.9l26.9,20.9c3.6-18.1,14.1-33.7,28.6-43.8l-51.8-40.1l16.1-21.3
							c6.6-8.7,4.9-21.2-3.7-27.8l-39.1,51.8c-5.8,7.7-7.8,17.1-6.4,25.9C-314.9,113-310.6,120.9-303.5,126.3L-303.5,126.3z"/>
						<path id="Shape_2_" d="M-139.2,307.6c-57.8-30.3-109.3-38.9-122.3-18.1c-10.7,17.1,7.5,49.5,43,82.7l-33.7,54.8h-23
							c-10.6,0.3-19,9-19,19.8h29.8h39.5l12.2-19.8l19.5-31.8l7.6-12.4c-2.7-4.5-4.3-9.7-4.3-15.3c0-16.3,13-29.5,29.1-29.5
							c0.9,0,1.8,0.1,2.6,0.2L-139.2,307.6L-139.2,307.6z"/>
						<path id="Shape_1_" d="M22.5,118.7C19.5,104,6.6,92.9-8.8,92.9c-4.4,0-8.6,0.9-12.4,2.5c-11.5,4.9-19.6,16.5-19.6,29.9v153.8
							c0,11-8.8,19.8-19.6,19.8c-7.9,0-14.6-4.7-17.8-11.5c-0.3-0.6-0.5-1.2-0.7-1.9L-97,239.9l35.3-120.7c0-0.1,0.1-0.2,0.1-0.2
							c0.4-1.4,0.8-2.7,1.2-4.1C-47.6,67.6-70.8,18.2-114-2l-83.1,29.3c-10.2,3.5-15.7,14.8-12.2,25.1l21-7.6
							c8.3-3,17.5,1.4,20.4,9.8c3,8.4-1.4,17.7-9.7,20.7l-21.7,7.9c3.8,10.2,15,15.4,25.1,11.6l22.9-8.5c1.6,9.4-3.6,18.8-12.7,22.1
							l-43.9,16.2c-18.5,8-31.7,26.3-32.6,47.8c0,0.8-0.1,1.6-0.1,2.4c0,0.5,0,1,0.1,1.5c-0.1-0.2-0.1-0.4-0.1-0.4h-68.6v-26.8
							c0-7.5-9.1-14-14.9-17.4l-4.6-2.5v65.7c0.2,18.5,15.1,33.4,33.4,33.4h77.4c6.9,0,13.5,0.8,19.9,2.4c-0.3-0.1-0.6-0.2-0.9-0.3
							c0.3,0.1,0.7,0.2,1,0.3c0.2,0,0.4,0.1,0.6,0.2c34.5,8.6,60.7,38.6,64.1,75.3c0.1,0.6,0.1,1.3,0.1,1.9c0.2,2.1,0.3,4.3,0.3,6.4
							c0,20.7-7.2,39.6-19.1,54.5c-0.9,1.1-1.8,2.2-2.7,3.2c-2.4,3.5-3.9,7.8-3.9,12.5c0,12,9.6,21.7,21.4,21.7
							c4.3,0,8.2-1.3,11.6-3.4l43.4-26c6,3.4,10,9.9,10,17.3c0,4.9-1.8,9.4-4.7,12.9l-18,19.8h-22h0h-1.1c-10.6,0.3-19,9-19,19.8
							h39.2h0h23.6c0-18.7,15-33.9,33.4-33.9v-57.8c-15.3-3.1-26.9-16.8-26.9-33.2c0-0.8,0-1.6,0.1-2.5c2,0.3,3.9,0.5,6,0.5
							c7.6,0,14.7-2.2,20.8-5.9c11.7-7.2,19.6-20.1,19.6-35V125.3c0-7.2,5.7-13,12.8-13c6.8,0,12.4,5.4,12.8,12.2
							c-8.8,6.1-14.6,16.3-14.6,28c0,18.7,15,33.9,33.4,33.9v-61.1C23.2,123.1,23,120.8,22.5,118.7L22.5,118.7z"/>
					</g>
				</g>
			</g>
		</g>
	</g>
</g>
</svg>
