<?xml version="1.0" encoding="utf-8"?>
<!-- Generator: Adobe Illustrator 22.1.0, SVG Export Plug-In . SVG Version: 6.00 Build 0)  -->
<svg version="1.1" id="Layer_1" xmlns="http://www.w3.org/2000/svg" xmlns:xlink="http://www.w3.org/1999/xlink" x="0px" y="0px"
	 viewBox="0 0 379 379" style="enable-background:new 0 0 379 379;" xml:space="preserve">
<style type="text/css">
	.st0{filter:url(#filter-1);}
</style>
<filter  filterUnits="objectBoundingBox" height="200%" id="filter-1" width="200%" x="-50%" y="-50%">
	<feOffset  dx="0" dy="2" in="SourceAlpha" result="shadowOffsetOuter1"></feOffset>
	<feGaussianBlur  in="shadowOffsetOuter1" result="shadowBlurOuter1" stdDeviation="2"></feGaussianBlur>
	
		<feColorMatrix  in="shadowBlurOuter1" result="shadowMatrixOuter1" type="matrix" values="0 0 0 0 0   0 0 0 0 0   0 0 0 0 0  0 0 0 0.05 0">
		</feColorMatrix>
	<feMerge>
		<feMergeNode  in="shadowMatrixOuter1"></feMergeNode>
		<feMergeNode  in="SourceGraphic"></feMergeNode>
	</feMerge>
</filter>
<title>ic_onCampus</title>
<desc>Created with Sketch.</desc>
<g id="OPt-2">
	<g id="prog2_pro3_Mobile-Portrait_opt2-Copy-2" transform="translate(-93.000000, -18.000000)">
		<g id="nav">
			<g id="Group-6" class="st0">
				<g id="ic_onCampus_1_" transform="translate(96.000000, 20.000000)">
					<path id="Shape_1_" d="M375,31.7v39.3h-98.3l-68.2,98.3h48.6v39.3h-30.3L299.7,366h-43.3l-18.3-39.3H67.9L47.7,366H3.4
						l81.2-157.3h-4.5c-8.8,0-16.3-5.9-18.9-13.8L-1.1,8.9l18.7-6.7C27.8-0.9,39,4.8,42.4,15l51.9,154.3h86.1l68.2-98.3h-70.2V31.7
						H375L375,31.7z M129.3,208.7l-40.9,78.6h131.5l-36.4-78.6H129.3z"/>
				</g>
			</g>
		</g>
	</g>
</g>
</svg>
